<svg xmlns="http://www.w3.org/2000/svg" width="248" height="80" viewBox="0 0 124 40">
    <defs>
        <linearGradient id="a" x1="14.484%" x2="121.957%" y1="0%" y2="144.232%">
            <stop offset="0%" stop-color="#4FF4BA"/>
            <stop offset="100%" stop-color="#38ABD5"/>
        </linearGradient>
    </defs>
    <g fill="none" fill-rule="evenodd">
        <path fill="#616670" d="M64.892 26.907c.38 0 .69.11.934.333.244.222.365.511.365.867 0 .355-.126.649-.379.88-.252.23-.559.346-.92.346H52.553c-.379 0-.699-.129-.96-.386-.262-.258-.393-.547-.393-.867 0-.284.1-.551.298-.8l11.04-14.187h-9.065c-.379 0-.69-.115-.934-.346a1.16 1.16 0 0 1-.365-.88c0-.356.122-.645.365-.867.244-.222.555-.333.934-.333h11.582c.36 0 .685.12.974.36.289.24.433.537.433.893 0 .249-.1.516-.298.8l-11.04 14.187h9.768zm13.027-5.094c-.018.32-.154.591-.406.814-.253.222-.55.333-.893.333h-9.525c.126 1.298.627 2.338 1.501 3.12.875.782 1.944 1.173 3.207 1.173.866 0 1.57-.124 2.11-.373a5.304 5.304 0 0 0 1.435-.96c.27-.16.532-.24.785-.24.306 0 .563.107.771.32.207.213.311.462.311.747 0 .373-.18.71-.541 1.013-.523.516-1.218.951-2.084 1.307a6.923 6.923 0 0 1-2.652.533c-1.46 0-2.746-.302-3.856-.907a6.365 6.365 0 0 1-2.57-2.533c-.605-1.084-.907-2.311-.907-3.68 0-1.493.311-2.804.934-3.933.622-1.13 1.443-1.996 2.462-2.6a6.336 6.336 0 0 1 3.288-.907 6.36 6.36 0 0 1 3.247.88 6.733 6.733 0 0 1 2.436 2.427c.613 1.03.929 2.186.947 3.466zm-6.63-4.426c-1.01 0-1.885.28-2.625.84-.74.56-1.227 1.426-1.461 2.6h7.983v-.214c-.09-.942-.519-1.715-1.286-2.32a4.105 4.105 0 0 0-2.611-.906zm14.877-2.347c3.247 0 4.871 1.92 4.871 5.76v7.253c0 .356-.122.658-.365.907-.244.249-.555.373-.934.373-.36 0-.663-.124-.906-.373a1.248 1.248 0 0 1-.366-.907v-7.226c0-1.05-.243-1.885-.73-2.507-.487-.622-1.281-.933-2.382-.933a4.12 4.12 0 0 0-1.961.466 3.595 3.595 0 0 0-1.38 1.254 3.141 3.141 0 0 0-.501 1.72v7.226c0 .356-.122.658-.365.907-.244.249-.555.373-.934.373s-.685-.12-.92-.36-.352-.546-.352-.92V16.64c0-.356.122-.658.366-.907.243-.249.545-.373.906-.373.379 0 .69.124.934.373.243.25.365.551.365.907v.933c.469-.71 1.123-1.31 1.962-1.8a5.26 5.26 0 0 1 2.692-.733zm20.993 4.48c.36 0 .663.124.907.373.243.25.365.551.365.907v6c0 .48-.217.853-.65 1.12-.83.533-1.74.947-2.733 1.24a10.73 10.73 0 0 1-3.057.44c-1.804 0-3.46-.427-4.966-1.28a9.483 9.483 0 0 1-3.558-3.48c-.866-1.467-1.3-3.08-1.3-4.84 0-1.76.434-3.373 1.3-4.84a9.483 9.483 0 0 1 3.558-3.48c1.506-.853 3.162-1.28 4.966-1.28.902 0 1.772.098 2.61.293a8.059 8.059 0 0 1 2.26.88c.217.125.38.276.488.454.108.177.162.373.162.586 0 .356-.122.663-.365.92a1.167 1.167 0 0 1-.88.387c-.27 0-.505-.062-.703-.187-1.173-.533-2.364-.8-3.572-.8-1.3 0-2.485.311-3.559.934a6.844 6.844 0 0 0-2.543 2.56c-.623 1.084-.934 2.275-.934 3.573s.311 2.484.934 3.56a6.975 6.975 0 0 0 2.543 2.56c1.074.631 2.26.947 3.559.947a9.41 9.41 0 0 0 1.934-.214c.677-.142 1.259-.329 1.746-.56v-4.24h-3.274c-.361 0-.668-.12-.92-.36a1.182 1.182 0 0 1-.38-.893c0-.373.127-.68.38-.92.252-.24.559-.36.92-.36h4.762zm16.041 2.827c0 1.386-.316 2.63-.947 3.733a6.829 6.829 0 0 1-2.584 2.587c-1.092.622-2.296.933-3.613.933-1.317 0-2.521-.311-3.612-.933a6.829 6.829 0 0 1-2.585-2.587c-.631-1.102-.947-2.347-.947-3.733 0-1.387.316-2.64.947-3.76a6.776 6.776 0 0 1 2.585-2.614c1.091-.622 2.295-.933 3.612-.933 1.317 0 2.521.311 3.613.933a6.776 6.776 0 0 1 2.584 2.614c.631 1.12.947 2.373.947 3.76zm-2.57 0c0-.96-.204-1.818-.61-2.574a4.477 4.477 0 0 0-1.65-1.76 4.402 4.402 0 0 0-2.314-.626c-.848 0-1.619.209-2.314.626a4.477 4.477 0 0 0-1.65 1.76c-.406.756-.609 1.614-.609 2.574 0 .942.203 1.786.609 2.533a4.5 4.5 0 0 0 1.65 1.747 4.402 4.402 0 0 0 2.314.626c.848 0 1.62-.209 2.314-.626a4.5 4.5 0 0 0 1.65-1.747c.406-.747.61-1.591.61-2.533z"/>
        <path fill="#FFF" d="M11.392 0h17.216c3.961 0 5.398.412 6.846 1.187a8.075 8.075 0 0 1 3.359 3.36C39.588 5.993 40 7.43 40 11.391v17.216c0 3.961-.412 5.398-1.187 6.846a8.075 8.075 0 0 1-3.36 3.359C34.007 39.588 32.57 40 28.609 40H11.392c-3.961 0-5.398-.412-6.846-1.187a8.075 8.075 0 0 1-3.359-3.36C.412 34.007 0 32.57 0 28.609V11.392c0-3.961.412-5.398 1.187-6.846a8.075 8.075 0 0 1 3.36-3.359C5.993.412 7.43 0 11.391 0z"/>
        <path fill="url(#a)" d="M26.613 6.485c2.667-.053 4.517 1.882 4.713 4.172.034.394.022.797-.04 1.2-.398 2.626-1.889 4.76-3.727 6.557-1.185 1.16-3.322 2.352-4.9 2.833l-.031.01c-.765.313-1.083-.203-.612-.809 1.213-1.557 3.09-4.844.722-6.31-1.402-.868-3.723.257-5.157.644-1.88.507-3.862.99-5.808.58-2.235-.473-3.75-2.713-3.455-4.99.293-2.259 2.31-3.887 4.56-3.887h13.735zM8.753 29.343a5.099 5.099 0 0 1 .038-1.2c.4-2.626 1.89-4.76 3.728-6.557 1.185-1.16 3.322-2.352 4.9-2.833l.031-.01c.765-.313 1.083.203.612.809-1.213 1.557-3.09 4.844-.722 6.31 1.402.868 3.723-.257 5.157-.644 1.88-.507 3.863-.99 5.808-.58 2.235.473 3.75 2.713 3.455 4.99-.293 2.259-2.31 3.887-4.56 3.887H13.465c-2.667.053-4.516-1.882-4.713-4.172z"/>
    </g>
</svg>
